# xmcd
#
# Track frame offsets:
#	150
#	11932
#	24308
#	36139
#	48760
#	59750
#	71730
#	86883
#	99376
#	112434
#	125400
#	139540
#	153719
#	168131
#
# Disc length: 2439 seconds
#
# Revision: 0
# Processed by: cddbd v1.5.1PL0 Copyright (c) Steve Scherf et al.
# Submitted via: dBpowerAMP V4.0
#
DISCID=c409850e
DTITLE=Gene Autry - The Singing Cowboy
DYEAR=2003
DGENRE=
TTITLE0=Back In The Saddle Again
TTITLE1=Deep In The Heart Of Texas
TTITLE2=Blueberry Hill
TTITLE3=Have I Told You Latley That I Love You?
TTITLE4=Red River Valley
TTITLE5=(I've Got Spurs That) Jingle Jangle Jingle
TTITLE6=Tumbling Tumbleweeds
TTITLE7=Way Out West In Texas
TTITLE8=Yellow Rose Of Texas
TTITLE9=South Of The Border
TTITLE10=Mexicali Rose
TTITLE11=The Old Trail
TTITLE12=No One To Call Me Darling
TTITLE13=The Last Round-Up
EXTD=
EXTT0=
EXTT1=
EXTT2=
EXTT3=
EXTT4=
EXTT5=
EXTT6=
EXTT7=
EXTT8=
EXTT9=
EXTT10=
EXTT11=
EXTT12=
EXTT13=
PLAYORDER=
